<mxfile host="app.diagrams.net" modified="2023-08-28T09:03:59.861Z" agent="Mozilla/5.0 (Macintosh; Intel Mac OS X 10_15_7) AppleWebKit/537.36 (KHTML, like Gecko) Chrome/116.0.0.0 Safari/537.36" version="21.6.9" etag="PBl_Mc4_RKEQUrCSqPc2" type="github">
  <diagram name="PÃ¡gina-1" id="ZCbFluGSCI6lrSf3ZY3O">
    <mxGraphModel>
      <root>
        <mxCell id="0" />
        <mxCell id="1" parent="0" />
      </root>
    </mxGraphModel>
  </diagram>
</mxfile>
